<svg xmlns="http://www.w3.org/2000/svg" viewBox="0 0 1422 800">
  <g fill="none" stroke="hsl(0, 0%, 100%)" stroke-linejoin="round" stroke-width="2" shape-rendering="crispEdges">
    <path d="m1422 0-177.75 100V0zM1244.25 100V0L1066.5 100zM1244.25 100v100H1066.5zM1422 200V100h-177.75zM1066.5 0 888.75 100h177.75zM888.75 100 711 0h177.75zM711 200V100l177.75 100zM1066.5 100v100L888.75 100zM888.75 300V200h177.75zM888.75 300V200H711zM888.75 400V300L711 400zM1066.5 300v50h-88.875zM977.625 350v-50l-88.875 50zM888.75 400l88.875-50H888.75zM1066.5 350v50h-88.875zM1244.25 300V200L1422 300zM1244.25 200v50h-88.875zM1155.375 250H1066.5l88.875-50zM1066.5 250l88.875 50v-50zM1155.375 250v50l88.875-50zM1244.25 400V300H1066.5zM1244.25 300 1422 400h-177.75zM711 100V0L533.25 100zM533.25 100H355.5V0zM533.25 100v100L355.5 100zM533.25 200 711 100v100zM355.5 0v200L0 0zM355.5 250v-50h-88.875zM266.625 250l-88.875-50v50zM266.625 250v50l-88.875-50zM355.5 250v50l-88.875-50zM177.75 300 0 200v100zM177.75 300v100H0zM177.75 300H355.5L177.75 400zM711 200H533.25v100zM533.25 200h-88.875v50zM355.5 250l88.875-50v50zM444.375 250H355.5v50zM533.25 300v-50l-88.875 50zM533.25 400V300L355.5 400zM711 350v-50l-88.875 50zM622.125 300H533.25l88.875 50zM622.125 350v50H533.25zM711 350v50h-88.875zM711 400v100H533.25zM355.5 400h177.75L355.5 500zM533.25 500H355.5l177.75 100zM711 600H533.25V500zM355.5 400v100H177.75zM177.75 400v100L0 400zM177.75 600 0 500v100zM177.75 600 355.5 500v100zM355.5 700V600L177.75 700zM177.75 600 0 700h177.75zM0 800l177.75-100v100zM355.5 800V700L177.75 800zM711 700H533.25L711 600zM355.5 600h177.75v100zM355.5 700l177.75 100H355.5zM711 800V700H533.25zM1422 400l-177.75 100H1422zM1244.25 400H1066.5v100zM1244.25 500v100H1066.5zM1422 600V500l-177.75 100zM888.75 500l177.75-100v100zM888.75 500 711 400h177.75zM799.875 550l88.875-50h-88.875zM799.875 500v50L711 500zM799.875 600 711 550v50zM888.75 600h-88.875l88.875-50zM1066.5 500H888.75l177.75 100zM1066.5 600 888.75 700h177.75zM888.75 700 711 600h177.75zM888.75 800H711l177.75-100zM1066.5 700H888.75v100zM1422 700h-177.75V600zM1244.25 600 1066.5 700h177.75zM1066.5 800l177.75-100H1066.5zM1422 800V700h-177.75z"/>
  </g>
</svg>
