<svg xmlns="http://www.w3.org/2000/svg" viewBox="0 0 1422 800"><g fill="hsl(0, 0%, 100%)" stroke-linejoin="round" shape-rendering="crispEdges"><path d="M1422 0h-355.5L1422 200zM1066.5 0v200L711 0zM711 200l355.5 200H711zM1422 200v200h-355.5zM711 200V0L355.5 200zM355.5 0H0v200zM0 200v200h355.5zM711 300H533.25V200zM533.25 300H355.5V200zM533.25 400 355.5 300h177.75zM711 300v100L533.25 300zM711 500V400H533.25zM355.5 400h177.75v100zM533.25 600H355.5l177.75-100zM533.25 500H711L533.25 600zM355.5 400 0 600V400zM0 600l355.5 200V600zM355.5 800H711V600zM1422 600l-355.5-200v200zM1066.5 400v200H711zM1066.5 800H711V600zM1422 800V600h-355.5z"/></g></svg>